<svg width="47" height="46" viewBox="0 0 47 46" fill="none" xmlns="http://www.w3.org/2000/svg">
<path d="M18.0668 17.8231C18.2247 17.7942 18.3862 17.7968 18.542 17.8307C18.6979 17.8646 18.845 17.9292 18.9751 18.0207C19.1052 18.1121 19.2156 18.2288 19.3001 18.3639C19.3846 18.499 19.4415 18.65 19.4675 18.8082C20.7204 26.4232 23.2431 32.3768 27.5122 37.6489C29.7005 36.2106 31.3905 34.0886 32.3646 31.5123C33.6572 28.0942 33.5974 24.2266 32.1931 20.3294C30.9396 16.8504 28.786 14.5739 26.7023 12.372C24.0737 9.59385 21.5908 6.96937 21.0689 2.00165C21.0093 1.45067 20.6945 1.01151 20.2215 0.82126C19.6787 0.606644 19.105 0.742241 18.5113 1.2324C17.1213 2.37934 14.3937 6.46986 12.2376 11.3307C8.77281 19.1394 8.68805 24.3422 9.22703 27.3324C9.92473 31.1944 12.041 34.6304 15.0258 36.8693C15.5878 37.2922 16.1812 37.6716 16.8011 38.0045C19.6179 39.509 22.6874 39.795 25.2802 38.8062C20.9385 33.3093 18.3559 27.1116 17.0598 19.2476C17.0337 19.0892 17.0391 18.9266 17.0756 18.7692C17.1121 18.6117 17.179 18.4626 17.2726 18.3303C17.3661 18.1979 17.4844 18.085 17.6207 17.998C17.757 17.9109 17.9086 17.8515 18.0668 17.8231ZM30.0262 40.4777C29.127 39.5541 28.2905 38.6138 27.5114 37.6512C26.9024 38.0517 26.2596 38.3968 25.5908 38.6822C25.4888 38.726 25.3849 38.7674 25.2808 38.8067C26.2184 39.9908 27.2165 41.125 28.2712 42.2046C28.3812 42.3225 28.5138 42.4168 28.6613 42.482C28.8089 42.5471 28.9684 42.5818 29.1305 42.5839C29.2926 42.5861 29.454 42.5557 29.6053 42.4945C29.7566 42.4334 29.8947 42.3427 30.0116 42.2278C30.1285 42.1128 30.2217 41.976 30.2859 41.8253C30.35 41.6746 30.3838 41.513 30.3852 41.3501C30.3866 41.1871 30.3556 41.026 30.2941 40.8763C30.2325 40.7266 30.1417 40.5913 30.0268 40.4782L30.0262 40.4777Z" fill="white" fill-opacity="0.2"/>
</svg>
