<svg width="141" height="54" viewBox="0 0 141 54" fill="none" xmlns="http://www.w3.org/2000/svg">
<path d="M39.9395 20.8711C39.9395 23.2969 39.5527 25.4004 38.7793 27.1816C38.0176 28.9512 36.9453 30.3574 35.5625 31.4004L39.957 34.8281L37.0742 37.4297L31.625 33.123C30.9102 33.2754 30.1426 33.3516 29.3223 33.3516C27.2598 33.3516 25.4141 32.8477 23.7852 31.8398C22.168 30.8203 20.9141 29.373 20.0234 27.498C19.1445 25.623 18.6992 23.4609 18.6875 21.0117V19.5703C18.6875 17.0742 19.127 14.8711 20.0059 12.9609C20.8965 11.0508 22.1445 9.5918 23.75 8.58398C25.3672 7.56445 27.2129 7.05469 29.2871 7.05469C31.3965 7.05469 33.2539 7.55859 34.8594 8.56641C36.4766 9.5625 37.7246 11.0039 38.6035 12.8906C39.4824 14.7656 39.9277 16.9512 39.9395 19.4473V20.8711ZM35.4746 19.5352C35.4746 16.6523 34.9355 14.4668 33.8574 12.9785C32.7793 11.4902 31.2559 10.7461 29.2871 10.7461C27.377 10.7461 25.877 11.502 24.7871 13.0137C23.709 14.5137 23.1582 16.6348 23.1348 19.377V20.8711C23.1348 23.6367 23.6738 25.7988 24.752 27.3574C25.8418 28.916 27.3652 29.6953 29.3223 29.6953C31.3027 29.6953 32.8203 28.9453 33.875 27.4453C34.9414 25.9453 35.4746 23.7539 35.4746 20.8711V19.5352ZM55.5664 31.1367C54.3125 32.6133 52.5312 33.3516 50.2227 33.3516C48.1602 33.3516 46.5957 32.748 45.5293 31.541C44.4746 30.334 43.9473 28.5879 43.9473 26.3027V13.9805H48.2188V26.25C48.2188 28.6641 49.2207 29.8711 51.2246 29.8711C53.2988 29.8711 54.6992 29.127 55.4258 27.6387V13.9805H59.6973V33H55.6719L55.5664 31.1367ZM68.5918 33H64.3203V13.9805H68.5918V33ZM64.0566 9.04102C64.0566 8.38477 64.2617 7.83984 64.6719 7.40625C65.0938 6.97266 65.6914 6.75586 66.4648 6.75586C67.2383 6.75586 67.8359 6.97266 68.2578 7.40625C68.6797 7.83984 68.8906 8.38477 68.8906 9.04102C68.8906 9.68555 68.6797 10.2246 68.2578 10.6582C67.8359 11.0801 67.2383 11.291 66.4648 11.291C65.6914 11.291 65.0938 11.0801 64.6719 10.6582C64.2617 10.2246 64.0566 9.68555 64.0566 9.04102ZM77.8203 29.5898H87.9453V33H72.5117V30.2051L82.1621 17.4258H72.6875V13.9805H87.5762V16.6875L77.8203 29.5898ZM95.9258 29.5898H106.051V33H90.6172V30.2051L100.268 17.4258H90.793V13.9805H105.682V16.6875L95.9258 29.5898ZM116.123 26.8828L119.99 13.9805H124.543L116.984 35.8828C115.824 39.082 113.855 40.6816 111.078 40.6816C110.457 40.6816 109.771 40.5762 109.021 40.3652V37.0605L109.83 37.1133C110.908 37.1133 111.717 36.9141 112.256 36.5156C112.807 36.1289 113.24 35.4727 113.557 34.5469L114.172 32.9121L107.492 13.9805H112.098L116.123 26.8828Z" fill="white"/>
<path d="M1 52.6739C24.3801 51.4028 80.8921 33.8093 140 52.6739" stroke="white" stroke-width="2" stroke-linecap="round"/>
</svg>
