<svg width="29" height="29" viewBox="0 0 29 29" fill="none" xmlns="http://www.w3.org/2000/svg">
<path d="M10.1799 15.205L3.85548 27.0033C3.53104 27.6015 3.70605 28.3467 4.25635 28.7462C4.81258 29.1427 5.57128 29.0672 6.03767 28.5719L15.2147 18.8188L27.0006 25.1381C27.5999 25.4575 28.3493 25.289 28.7442 24.7373C29.1407 24.1811 29.0711 23.4226 28.5711 22.9566L18.8238 13.7911L25.1485 1.99658C25.4692 1.39834 25.2939 0.653189 24.7439 0.253009C24.193 -0.142492 23.4287 -0.0666969 22.9617 0.427055L13.7959 10.1764L1.99931 3.85307C1.39535 3.53305 0.65006 3.7074 0.255738 4.25886C-0.141391 4.80969 -0.0693251 5.57325 0.425448 6.04017L10.1799 15.205Z" fill="white" fill-opacity="0.2"/>
</svg>
